# Blender v2.79 (sub 0) OBJ File: ''
# www.blender.org
o Cube

albedoTex tex/rustediron2_albedo.png
metalTex tex/rustediron2_metallic.png
roughTex tex/rustediron2_roughness.png
normTex tex/rustediron2_normal.png

v -1.000000 -0.882447 -0.882447
v -0.882447 -0.882447 -1.000000
v -0.882447 -1.000000 -0.882447
v -0.984295 -0.882447 -0.941146
v -0.984295 -0.941146 -0.882447
v -0.969040 -0.938662 -0.938662
v -0.882447 -0.941146 -0.984295
v -0.941146 -0.882447 -0.984295
v -0.938662 -0.938662 -0.969040
v -0.941146 -0.984295 -0.882447
v -0.882447 -0.984295 -0.941146
v -0.938662 -0.969040 -0.938662
v -1.000000 0.882447 -0.882447
v -0.882447 1.000000 -0.882447
v -0.882447 0.882447 -1.000000
v -0.984295 0.941146 -0.882447
v -0.984295 0.882447 -0.941146
v -0.969040 0.938662 -0.938662
v -0.882447 0.984295 -0.941146
v -0.941146 0.984295 -0.882447
v -0.938662 0.969040 -0.938662
v -0.941146 0.882447 -0.984295
v -0.882447 0.941146 -0.984295
v -0.938662 0.938662 -0.969040
v 0.882447 1.000000 -0.882447
v 1.000000 0.882447 -0.882447
v 0.882447 0.882447 -1.000000
v 0.941146 0.984295 -0.882447
v 0.882447 0.984295 -0.941146
v 0.938662 0.969040 -0.938662
v 0.984295 0.882447 -0.941146
v 0.984295 0.941146 -0.882447
v 0.969040 0.938662 -0.938662
v 0.882447 0.941146 -0.984295
v 0.941146 0.882447 -0.984295
v 0.938662 0.938662 -0.969040
v 0.882447 -1.000000 -0.882447
v 0.882447 -0.882447 -1.000000
v 1.000000 -0.882447 -0.882447
v 0.882446 -0.984296 -0.941146
v 0.941146 -0.984296 -0.882447
v 0.938662 -0.969041 -0.938662
v 0.941146 -0.882447 -0.984295
v 0.882446 -0.941147 -0.984295
v 0.938662 -0.938663 -0.969040
v 0.984295 -0.941147 -0.882447
v 0.984295 -0.882447 -0.941146
v 0.969040 -0.938663 -0.938662
v -0.882447 -1.000000 0.882447
v -0.882447 -0.882446 1.000000
v -1.000000 -0.882446 0.882447
v -0.882447 -0.984295 0.941146
v -0.941147 -0.984295 0.882447
v -0.938663 -0.969040 0.938662
v -0.941147 -0.882446 0.984295
v -0.882447 -0.941146 0.984295
v -0.938663 -0.938662 0.969040
v -0.984296 -0.941146 0.882447
v -0.984296 -0.882446 0.941146
v -0.969041 -0.938662 0.938662
v -0.882446 1.000001 0.882447
v -0.999999 0.882447 0.882447
v -0.882446 0.882447 1.000000
v -0.941146 0.984296 0.882447
v -0.882446 0.984296 0.941146
v -0.938662 0.969041 0.938662
v -0.984295 0.882447 0.941146
v -0.984295 0.941147 0.882447
v -0.969040 0.938663 0.938662
v -0.882446 0.941147 0.984295
v -0.941146 0.882447 0.984295
v -0.938662 0.938663 0.969040
v 1.000000 0.882447 0.882447
v 0.882447 1.000000 0.882447
v 0.882447 0.882447 1.000000
v 0.984296 0.941146 0.882447
v 0.984296 0.882447 0.941146
v 0.969041 0.938662 0.938662
v 0.882447 0.984295 0.941146
v 0.941147 0.984295 0.882447
v 0.938663 0.969040 0.938662
v 0.941147 0.882447 0.984295
v 0.882447 0.941146 0.984295
v 0.938663 0.938662 0.969040
v 1.000000 -0.882447 0.882447
v 0.882447 -0.882447 1.000000
v 0.882447 -1.000000 0.882447
v 0.984295 -0.882447 0.941146
v 0.984295 -0.941146 0.882447
v 0.969040 -0.938662 0.938662
v 0.882447 -0.941146 0.984295
v 0.941146 -0.882447 0.984295
v 0.938662 -0.938662 0.969040
v 0.941146 -0.984295 0.882447
v 0.882447 -0.984295 0.941146
v 0.938662 -0.969040 0.938662
vt 0.730572 0.269428
vt 0.269428 0.730572
vt 0.730572 0.730572
vt 0.730572 0.269428
vt 0.269428 0.730572
vt 0.730572 0.730572
vt 0.269428 0.730572
vt 0.730572 0.269428
vt 0.269428 0.269428
vt 0.269428 0.730572
vt 0.730572 0.269428
vt 0.730572 0.730572
vt 0.730572 0.730572
vt 0.269428 0.269428
vt 0.730572 0.269428
vt 0.730572 0.254091
vt 0.745909 0.269428
vt 0.730572 0.269428
vt 0.745260 0.246802
vt 0.745260 0.254740
vt 0.730572 0.745909
vt 0.745909 0.730572
vt 0.745260 0.753197
vt 0.745260 0.745260
vt 0.745909 0.269428
vt 0.730572 0.254091
vt 0.757183 0.269428
vt 0.745260 0.254740
vt 0.753197 0.745260
vt 0.254091 0.269428
vt 0.269428 0.254091
vt 0.269428 0.269428
vt 0.757183 0.269428
vt 0.745260 0.254740
vt 0.753197 0.254740
vt 0.730572 0.254091
vt 0.745909 0.269428
vt 0.745260 0.246802
vt 0.745909 0.269428
vt 0.730572 0.254091
vt 0.757183 0.269428
vt 0.745260 0.254740
vt 0.254091 0.269428
vt 0.269428 0.254091
vt 0.246802 0.254740
vt 0.254740 0.254740
vt 0.269428 0.254091
vt 0.254091 0.269428
vt 0.254740 0.246802
vt 0.254740 0.254740
vt 0.269428 0.254091
vt 0.254091 0.269428
vt 0.269428 0.269428
vt 0.254740 0.246802
vt 0.254740 0.254740
vt 0.269428 0.254091
vt 0.254091 0.269428
vt 0.269428 0.269428
vt 0.254740 0.246802
vt 0.254740 0.254740
vt 0.254091 0.730572
vt 0.269428 0.745909
vt 0.246803 0.745260
vt 0.254740 0.745260
vt 0.745909 0.269428
vt 0.730572 0.254091
vt 0.753198 0.254740
vt 0.745260 0.254740
vt 0.254740 0.753198
vt 0.730572 0.745909
vt 0.745909 0.730572
vt 0.745260 0.753197
vt 0.745260 0.745260
vt 0.745909 0.730572
vt 0.730572 0.745909
vt 0.730572 0.745909
vt 0.730572 0.757183
vt 0.745909 0.730572
vt 0.730572 0.730572
vt 0.753197 0.745260
vt 0.745260 0.745260
vt 0.745260 0.753197
vt 0.745260 0.745260
vt 0.753198 0.745260
vt 0.745909 0.730572
vt 0.730572 0.745909
vt 0.242816 0.730572
vt 0.254740 0.745260
vt 0.246802 0.745260
vt 0.269428 0.745909
vt 0.254091 0.730572
vt 0.269428 0.730572
vt 0.757183 0.269428
vt 0.745260 0.254740
vt 0.753197 0.254740
vt 0.730572 0.254091
vt 0.745909 0.269428
vt 0.730572 0.242816
vt 0.745260 0.246802
vt 0.254091 0.730572
vt 0.269428 0.745909
vt 0.246803 0.745260
vt 0.254740 0.745260
vt 0.269428 0.745909
vt 0.254091 0.730572
vt 0.269428 0.730572
vt 0.269428 0.242817
vt 0.254740 0.254740
vt 0.254740 0.246803
vt 0.254091 0.269428
vt 0.269428 0.254091
vt 0.269428 0.269428
vt 0.246802 0.254740
vt 0.730572 0.745909
vt 0.745909 0.730572
vt 0.730572 0.730572
vt 0.745260 0.753197
vt 0.745260 0.745260
vt 0.269428 0.745909
vt 0.254091 0.730572
vt 0.254740 0.753197
vt 0.254740 0.745260
vt 0.254091 0.730572
vt 0.269428 0.745909
vt 0.242817 0.730572
vt 0.254740 0.745260
vt 0.246803 0.745260
vt 0.730572 0.242817
vt 0.269428 0.242817
vt 0.730572 0.242817
vt 0.757183 0.730572
vt 0.757183 0.269428
vt 0.730572 0.242817
vt 0.242817 0.730572
vt 0.242817 0.269428
vt 0.242817 0.269428
vt 0.242817 0.269428
vt 0.269428 0.757183
vt 0.269428 0.757183
vt 0.730572 0.757183
vt 0.269428 0.757183
vt 0.730572 0.757183
vt 0.242816 0.269428
vt 0.730572 0.757183
vt 0.753197 0.254740
vt 0.254740 0.254740
vt 0.269428 0.242817
vt 0.269428 0.242817
vt 0.757184 0.269428
vt 0.730572 0.757183
vt 0.745260 0.745260
vt 0.242817 0.730572
vt 0.254740 0.745260
vt 0.730572 0.757183
vt 0.269428 0.242817
vt 0.269428 0.242817
vt 0.757183 0.730572
vt 0.242816 0.730572
vt 0.242817 0.730572
vn -0.0000 -1.0000 0.0000
vn 0.0000 0.0000 -1.0000
vn 1.0000 -0.0000 -0.0000
vn 0.0000 0.0000 1.0000
vn 0.0000 1.0000 -0.0000
vn -0.9353 -0.2502 -0.2502
vn -0.6901 -0.2178 -0.6901
vn -0.2502 -0.2502 -0.9353
vn -0.2178 -0.6901 -0.6901
vn -0.2502 -0.9353 -0.2502
vn -0.6901 -0.6901 -0.2178
vn -0.5773 -0.5773 -0.5774
vn -0.9353 0.2502 -0.2502
vn -0.6901 0.6901 -0.2178
vn -0.2502 0.9353 -0.2502
vn -0.2178 0.6901 -0.6901
vn -0.2502 0.2502 -0.9353
vn -0.6901 0.2178 -0.6901
vn -0.5773 0.5774 -0.5773
vn 0.2502 0.9353 -0.2502
vn 0.6901 0.6901 -0.2178
vn 0.9353 0.2502 -0.2502
vn 0.6901 0.2178 -0.6901
vn 0.2502 0.2502 -0.9353
vn 0.2178 0.6901 -0.6901
vn 0.5773 0.5774 -0.5773
vn 0.2502 -0.9353 -0.2502
vn 0.2178 -0.6901 -0.6901
vn 0.2502 -0.2502 -0.9353
vn 0.6901 -0.2178 -0.6901
vn 0.9353 -0.2502 -0.2502
vn 0.6901 -0.6901 -0.2178
vn 0.5773 -0.5774 -0.5773
vn -0.2502 -0.9353 0.2502
vn -0.2178 -0.6901 0.6901
vn -0.2502 -0.2502 0.9353
vn -0.6901 -0.2178 0.6901
vn -0.9353 -0.2502 0.2502
vn -0.6901 -0.6901 0.2178
vn -0.5773 -0.5774 0.5774
vn -0.2502 0.9353 0.2502
vn -0.6901 0.6901 0.2178
vn -0.9353 0.2502 0.2502
vn -0.6901 0.2178 0.6901
vn -0.2502 0.2502 0.9353
vn -0.2178 0.6901 0.6901
vn -0.5773 0.5773 0.5774
vn 0.9353 0.2502 0.2502
vn 0.6901 0.6901 0.2178
vn 0.2502 0.9353 0.2502
vn 0.2178 0.6901 0.6901
vn 0.2502 0.2502 0.9353
vn 0.6901 0.2178 0.6901
vn 0.5773 0.5774 0.5774
vn 0.9353 -0.2502 0.2502
vn 0.6901 -0.2178 0.6901
vn 0.2502 -0.2502 0.9353
vn 0.2178 -0.6901 0.6901
vn 0.2502 -0.9353 0.2502
vn 0.6901 -0.6901 0.2178
vn 0.5773 -0.5773 0.5774
vn -0.9660 0.0000 -0.2585
vn -0.7071 0.0000 -0.7071
vn -0.2585 0.0000 -0.9660
vn -0.0000 -0.2585 -0.9660
vn -0.0000 -0.7071 -0.7071
vn -0.0000 -0.9660 -0.2585
vn -0.2585 -0.9660 0.0000
vn -0.7071 -0.7071 0.0000
vn -0.9660 -0.2585 -0.0000
vn 0.0000 0.9660 -0.2584
vn 0.0000 0.7071 -0.7071
vn 0.0000 0.2585 -0.9660
vn -0.9660 0.2585 0.0000
vn -0.7071 0.7071 -0.0000
vn -0.2585 0.9660 -0.0000
vn 0.9660 -0.0000 -0.2585
vn 0.7071 -0.0000 -0.7071
vn 0.2585 -0.0000 -0.9660
vn 0.2585 0.9660 0.0000
vn 0.7071 0.7071 -0.0000
vn 0.9660 0.2585 -0.0000
vn 0.9660 -0.2585 -0.0000
vn 0.7071 -0.7071 0.0000
vn 0.2585 -0.9660 0.0000
vn -0.2585 0.0000 0.9660
vn -0.7071 0.0000 0.7071
vn -0.9660 0.0000 0.2585
vn -0.0000 -0.9660 0.2585
vn -0.0000 -0.7071 0.7071
vn -0.0000 -0.2585 0.9660
vn 0.0000 0.2585 0.9660
vn 0.0000 0.7071 0.7071
vn 0.0000 0.9660 0.2585
vn 0.2585 -0.0000 0.9660
vn 0.7071 -0.0000 0.7071
vn 0.9660 -0.0000 0.2585
vn -1.0000 0.0000 -0.0000
vn -0.9280 -0.2635 -0.2635
vn -0.2635 -0.2635 -0.9280
vn -0.2635 -0.9280 -0.2635
vn -0.9280 0.2635 -0.2635
vn -0.2635 0.9280 -0.2635
vn -0.2635 0.2635 -0.9280
vn 0.2635 0.9280 -0.2635
vn 0.9280 0.2635 -0.2635
vn 0.2635 0.2635 -0.9280
vn 0.2635 -0.9280 -0.2635
vn 0.2635 -0.2635 -0.9280
vn 0.9280 -0.2635 -0.2635
vn -0.2635 -0.9280 0.2635
vn -0.2635 -0.2635 0.9280
vn -0.9280 -0.2635 0.2635
vn -0.2635 0.9280 0.2635
vn -0.9280 0.2635 0.2635
vn -0.2635 0.2635 0.9280
vn 0.9280 0.2635 0.2635
vn 0.2635 0.9280 0.2635
vn 0.2635 0.2635 0.9280
vn 0.9280 -0.2635 0.2635
vn 0.2635 -0.2635 0.9280
vn 0.2635 -0.9280 0.2635
vn 0.0000 0.9660 -0.2585
s off
f 3/1/1 87/2/1 49/3/1
f 15/4/2 38/5/2 2/6/2
f 73/7/3 39/8/3 26/9/3
f 86/10/4 63/11/4 50/12/4
f 61/13/5 25/14/5 14/15/5
f 4/16/6 5/17/6 1/18/6
f 4/16/7 9/19/7 6/20/7
f 7/21/8 8/22/8 2/6/8
f 7/21/9 12/23/9 9/24/9
f 10/25/10 11/26/10 3/1/10
f 5/27/11 12/28/11 10/25/11
f 6/29/12 9/24/12 12/23/12
f 16/30/13 17/31/13 13/32/13
f 16/33/14 21/34/14 18/35/14
f 19/36/15 20/37/15 14/15/15
f 19/36/16 24/38/16 21/34/16
f 22/39/17 23/40/17 15/4/17
f 17/41/18 24/42/18 22/39/18
f 18/35/19 21/34/19 24/38/19
f 28/43/20 29/44/20 25/14/20
f 28/43/21 33/45/21 30/46/21
f 31/47/22 32/48/22 26/9/22
f 31/47/23 36/49/23 33/50/23
f 34/51/24 35/52/24 27/53/24
f 34/51/25 30/54/25 36/55/25
f 30/54/26 33/45/26 36/55/26
f 40/56/27 41/57/27 37/58/27
f 40/56/28 45/59/28 42/60/28
f 43/61/29 44/62/29 38/5/29
f 43/61/30 48/63/30 45/64/30
f 46/65/31 47/66/31 39/8/31
f 46/65/32 42/67/32 48/68/32
f 42/69/33 45/64/33 48/63/33
f 52/70/34 53/71/34 49/3/34
f 52/70/35 57/72/35 54/73/35
f 55/74/36 56/75/36 50/12/36
f 59/76/37 57/72/37 55/77/37
f 58/78/38 59/76/38 51/79/38
f 58/78/39 54/80/39 60/81/39
f 54/82/40 57/83/40 60/84/40
f 64/85/41 65/86/41 61/13/41
f 64/87/42 69/88/42 66/89/42
f 67/90/43 68/91/43 62/92/43
f 67/93/44 72/94/44 69/95/44
f 70/96/45 71/97/45 63/11/45
f 65/98/46 72/94/46 70/96/46
f 66/99/47 69/95/47 72/94/47
f 76/100/48 77/101/48 73/7/48
f 76/100/49 81/102/49 78/103/49
f 79/104/50 80/105/50 74/106/50
f 79/107/51 84/108/51 81/109/51
f 82/110/52 83/111/52 75/112/52
f 82/110/53 78/113/53 84/108/53
f 78/113/54 81/109/54 84/108/54
f 88/114/55 89/115/55 85/116/55
f 88/114/56 93/117/56 90/118/56
f 91/119/57 92/120/57 86/10/57
f 91/119/58 96/121/58 93/122/58
f 94/123/59 95/124/59 87/2/59
f 89/125/60 96/126/60 94/123/60
f 90/127/61 93/122/61 96/121/61
f 13/32/62 4/16/62 1/18/62
f 17/31/63 8/128/63 4/16/63
f 8/22/64 15/4/64 2/6/64
f 2/6/65 44/62/65 7/21/65
f 44/129/66 11/26/66 7/130/66
f 40/56/67 3/1/67 11/26/67
f 49/3/68 10/25/68 3/1/68
f 53/131/69 5/17/69 10/132/69
f 58/78/70 1/18/70 5/17/70
f 25/14/71 19/36/71 14/15/71
f 29/44/72 23/133/72 19/36/72
f 34/51/73 15/4/73 23/40/73
f 62/92/74 16/30/74 13/32/74
f 16/33/75 64/85/75 20/37/75
f 64/85/76 14/15/76 20/37/76
f 39/8/77 31/47/77 26/9/77
f 47/134/78 35/52/78 31/135/78
f 43/61/79 27/53/79 35/52/79
f 74/106/80 28/43/80 25/14/80
f 80/105/81 32/136/81 28/43/81
f 76/100/82 26/9/82 32/48/82
f 85/116/83 46/65/83 39/8/83
f 89/125/84 41/57/84 46/137/84
f 41/57/85 87/2/85 37/58/85
f 63/11/86 55/74/86 50/12/86
f 71/138/87 59/76/87 55/77/87
f 67/90/88 51/79/88 59/76/88
f 87/2/89 52/70/89 49/3/89
f 95/139/90 56/75/90 52/140/90
f 91/119/91 50/12/91 56/75/91
f 63/11/92 83/111/92 70/96/92
f 83/141/93 65/86/93 70/142/93
f 65/86/94 74/106/94 61/13/94
f 86/10/95 82/110/95 75/112/95
f 92/120/96 77/143/96 82/110/96
f 77/101/97 85/116/97 73/7/97
f 51/79/98 13/32/98 1/18/98
f 3/1/1 37/58/1 87/2/1
f 15/4/2 27/53/2 38/5/2
f 73/7/3 85/116/3 39/8/3
f 86/10/4 75/112/4 63/11/4
f 61/13/5 74/106/5 25/14/5
f 4/16/99 6/20/99 5/17/99
f 4/16/7 8/128/7 9/19/7
f 7/21/100 9/24/100 8/22/100
f 7/21/9 11/144/9 12/23/9
f 10/25/101 12/28/101 11/26/101
f 5/27/11 6/145/11 12/28/11
f 16/30/102 18/146/102 17/31/102
f 16/33/14 20/37/14 21/34/14
f 19/36/103 21/34/103 20/37/103
f 19/36/16 23/133/16 24/38/16
f 22/39/104 24/42/104 23/40/104
f 17/41/18 18/35/18 24/42/18
f 28/43/105 30/46/105 29/44/105
f 28/43/21 32/136/21 33/45/21
f 31/47/106 33/50/106 32/48/106
f 31/47/23 35/147/23 36/49/23
f 34/51/107 36/55/107 35/52/107
f 34/51/25 29/148/25 30/54/25
f 40/56/108 42/60/108 41/57/108
f 40/56/28 44/129/28 45/59/28
f 43/61/109 45/64/109 44/62/109
f 43/61/30 47/134/30 48/63/30
f 46/65/110 48/68/110 47/66/110
f 46/65/32 41/149/32 42/67/32
f 52/70/111 54/73/111 53/71/111
f 52/70/35 56/150/35 57/72/35
f 55/74/112 57/83/112 56/75/112
f 59/76/37 60/81/37 57/72/37
f 58/78/113 60/81/113 59/76/113
f 58/78/39 53/131/39 54/80/39
f 64/85/114 66/151/114 65/86/114
f 64/87/42 68/91/42 69/88/42
f 67/90/115 69/88/115 68/91/115
f 67/93/44 71/97/44 72/94/44
f 70/96/116 72/94/116 71/97/116
f 65/98/46 66/99/46 72/94/46
f 76/100/117 78/103/117 77/101/117
f 76/100/49 80/152/49 81/102/49
f 79/104/118 81/153/118 80/105/118
f 79/107/51 83/111/51 84/108/51
f 82/110/119 84/108/119 83/111/119
f 82/110/53 77/143/53 78/113/53
f 88/114/120 90/118/120 89/115/120
f 88/114/56 92/154/56 93/117/56
f 91/119/121 93/122/121 92/120/121
f 91/119/58 95/139/58 96/121/58
f 94/123/122 96/126/122 95/124/122
f 89/125/60 90/127/60 96/126/60
f 13/32/62 17/31/62 4/16/62
f 17/31/63 22/155/63 8/128/63
f 8/22/64 22/39/64 15/4/64
f 2/6/65 38/5/65 44/62/65
f 44/129/66 40/56/66 11/26/66
f 40/56/67 37/58/67 3/1/67
f 49/3/68 53/71/68 10/25/68
f 53/131/69 58/78/69 5/17/69
f 58/78/70 51/79/70 1/18/70
f 25/14/123 29/44/123 19/36/123
f 29/44/72 34/156/72 23/133/72
f 34/51/73 27/53/73 15/4/73
f 62/92/74 68/91/74 16/30/74
f 16/33/75 68/157/75 64/85/75
f 64/85/76 61/13/76 14/15/76
f 39/8/77 47/66/77 31/47/77
f 47/134/78 43/61/78 35/52/78
f 43/61/79 38/5/79 27/53/79
f 74/106/80 80/105/80 28/43/80
f 80/105/81 76/158/81 32/136/81
f 76/100/82 73/7/82 26/9/82
f 85/116/83 89/115/83 46/65/83
f 89/125/84 94/123/84 41/57/84
f 41/57/85 94/123/85 87/2/85
f 63/11/86 71/97/86 55/74/86
f 71/138/87 67/90/87 59/76/87
f 67/90/88 62/92/88 51/79/88
f 87/2/89 95/124/89 52/70/89
f 95/139/90 91/119/90 56/75/90
f 91/119/91 86/10/91 50/12/91
f 63/11/92 75/112/92 83/111/92
f 83/141/93 79/104/93 65/86/93
f 65/86/94 79/104/94 74/106/94
f 86/10/95 92/120/95 82/110/95
f 92/120/96 88/159/96 77/143/96
f 77/101/97 88/114/97 85/116/97
f 51/79/98 62/92/98 13/32/98
